<?xml version="1.0" standalone="no"?>
<!DOCTYPE svg PUBLIC "-//W3C//DTD SVG 20010904//EN"
 "http://www.w3.org/TR/2001/REC-SVG-20010904/DTD/svg10.dtd">
<svg version="1.0" xmlns="http://www.w3.org/2000/svg"
 width="70.000000pt" height="70.000000pt" viewBox="0 0 70.000000 70.000000"
 preserveAspectRatio="xMidYMid meet">
<metadata>
Created by potrace 1.14, written by Peter Selinger 2001-2017
</metadata>
<g transform="translate(0.000000,70.000000) scale(0.100000,-0.100000)"
fill="#000000" stroke="none">
<path d="M221 589 c-74 -37 -123 -96 -147 -178 -19 -62 -13 -144 12 -194 l16
-30 19 24 c10 13 16 31 13 39 -3 8 -8 38 -11 66 -11 106 67 210 175 233 112
23 228 -41 262 -144 19 -57 9 -143 -23 -192 -50 -79 -166 -122 -252 -93 -33
11 -39 10 -62 -11 l-25 -24 39 -17 c53 -24 175 -24 228 1 51 23 109 80 138
134 18 34 22 58 22 132 0 80 -3 95 -27 136 -82 140 -236 188 -377 118z"/>
<path d="M260 466 c0 -2 -20 -47 -45 -100 l-44 -96 63 0 c55 0 64 3 69 20 5
18 0 20 -39 20 -42 0 -44 1 -34 20 8 15 21 20 50 20 22 0 40 2 40 4 0 2 3 11
6 20 5 13 -1 16 -30 16 -37 0 -42 5 -27 28 5 9 26 12 64 10 l56 -3 -34 -77
c-31 -72 -32 -78 -14 -78 12 0 21 9 25 25 5 22 11 25 53 25 41 0 49 -3 59 -25
11 -25 49 -37 39 -12 -3 6 -22 51 -43 100 l-37 87 -88 0 c-49 0 -89 -2 -89 -4z
m179 -77 c6 -18 11 -34 11 -35 0 -2 -14 -4 -31 -4 -26 0 -30 3 -24 18 4 9 10
25 12 35 8 26 20 21 32 -14z"/>
<path d="M142 177 l-22 -23 29 -28 29 -28 18 27 c17 26 17 27 -7 51 l-25 25
-22 -24z"/>
</g>
</svg>
